<svg width="100" height="100" viewBox="0 0 100 100" fill="none" xmlns="http://www.w3.org/2000/svg">
<path d="M54.167 37.5002H77.0837L54.167 14.5835V37.5002ZM25.0003 8.3335H58.3337L83.3337 33.3335V83.3335C83.3337 85.5436 82.4557 87.6632 80.8929 89.226C79.3301 90.7889 77.2105 91.6668 75.0003 91.6668H25.0003C22.7902 91.6668 20.6706 90.7889 19.1078 89.226C17.545 87.6632 16.667 85.5436 16.667 83.3335V16.6668C16.667 12.0418 20.3753 8.3335 25.0003 8.3335ZM58.3337 83.3335V79.1668C58.3337 73.6252 47.2087 70.8335 41.667 70.8335C36.1253 70.8335 25.0003 73.6252 25.0003 79.1668V83.3335H58.3337ZM41.667 50.0002C39.4569 50.0002 37.3372 50.8781 35.7744 52.4409C34.2116 54.0037 33.3337 56.1234 33.3337 58.3335C33.3337 60.5436 34.2116 62.6632 35.7744 64.226C37.3372 65.7889 39.4569 66.6668 41.667 66.6668C43.8771 66.6668 45.9967 65.7889 47.5595 64.226C49.1223 62.6632 50.0003 60.5436 50.0003 58.3335C50.0003 56.1234 49.1223 54.0037 47.5595 52.4409C45.9967 50.8781 43.8771 50.0002 41.667 50.0002Z" fill="#222222"/>
</svg>
