<svg width="34" height="28" viewBox="0 0 34 28" fill="none" xmlns="http://www.w3.org/2000/svg">
<path d="M33.25 3.93359C32.0547 4.44922 30.7539 4.82031 29.4141 4.96485C30.8051 4.13842 31.8468 2.83281 32.3437 1.29297C31.0384 2.06949 29.6084 2.614 28.1172 2.90234C27.4939 2.23604 26.7401 1.70523 25.9027 1.343C25.0654 0.980763 24.1624 0.794861 23.25 0.796876C19.5586 0.796876 16.5898 3.78906 16.5898 7.46094C16.5898 7.97656 16.6523 8.49219 16.7539 8.98828C11.2266 8.69922 6.29688 6.05859 3.01953 2.01563C2.42236 3.03561 2.10943 4.19698 2.11328 5.37891C2.11328 7.69141 3.28906 9.73047 5.08203 10.9297C4.02541 10.8881 2.99353 10.5977 2.07031 10.082V10.1641C2.07031 13.4023 4.35938 16.0859 7.41016 16.7031C6.83734 16.8519 6.24807 16.928 5.65625 16.9297C5.22266 16.9297 4.8125 16.8867 4.39844 16.8281C5.24219 19.4688 7.69922 21.3867 10.625 21.4492C8.33594 23.2422 5.46875 24.2969 2.35547 24.2969C1.79688 24.2969 1.28125 24.2773 0.746094 24.2148C3.69922 26.1094 7.20312 27.2031 10.9766 27.2031C23.2266 27.2031 29.9297 17.0547 29.9297 8.2461C29.9297 7.95703 29.9297 7.66797 29.9102 7.37891C31.207 6.42969 32.3437 5.25391 33.25 3.93359Z" fill="black"/>
</svg>
