<svg width="39" height="40" viewBox="0 0 39 40" fill="none" xmlns="http://www.w3.org/2000/svg">
<path d="M24.625 21.95C24.8417 21.95 25.6542 22.3167 27.0625 23.05C28.4708 23.7833 29.2167 24.225 29.3 24.375C29.3333 24.4583 29.35 24.5833 29.35 24.75C29.35 25.3 29.2083 25.9333 28.925 26.65C28.6583 27.3 28.0667 27.8458 27.15 28.2875C26.2333 28.7292 25.3833 28.95 24.6 28.95C23.65 28.95 22.0667 28.4333 19.85 27.4C18.2167 26.65 16.8 25.6667 15.6 24.45C14.4 23.2333 13.1667 21.6917 11.9 19.825C10.7 18.0417 10.1083 16.425 10.125 14.975V14.775C10.175 13.2583 10.7917 11.9417 11.975 10.825C12.375 10.4583 12.8083 10.275 13.275 10.275C13.375 10.275 13.525 10.2875 13.725 10.3125C13.925 10.3375 14.0833 10.35 14.2 10.35C14.5167 10.35 14.7375 10.4042 14.8625 10.5125C14.9875 10.6208 15.1167 10.85 15.25 11.2C15.3833 11.5333 15.6583 12.2667 16.075 13.4C16.4917 14.5333 16.7 15.1583 16.7 15.275C16.7 15.625 16.4125 16.1042 15.8375 16.7125C15.2625 17.3208 14.975 17.7083 14.975 17.875C14.975 17.9917 15.0167 18.1167 15.1 18.25C15.6667 19.4667 16.5167 20.6083 17.65 21.675C18.5833 22.5583 19.8417 23.4 21.425 24.2C21.625 24.3167 21.8083 24.375 21.975 24.375C22.225 24.375 22.675 23.9708 23.325 23.1625C23.975 22.3542 24.4083 21.95 24.625 21.95ZM19.55 35.2C21.6667 35.2 23.6958 34.7833 25.6375 33.95C27.5792 33.1167 29.25 32 30.65 30.6C32.05 29.2 33.1667 27.5292 34 25.5875C34.8333 23.6458 35.25 21.6167 35.25 19.5C35.25 17.3833 34.8333 15.3542 34 13.4125C33.1667 11.4708 32.05 9.8 30.65 8.4C29.25 7 27.5792 5.88333 25.6375 5.05C23.6958 4.21667 21.6667 3.8 19.55 3.8C17.4333 3.8 15.4042 4.21667 13.4625 5.05C11.5208 5.88333 9.85 7 8.45 8.4C7.05 9.8 5.93333 11.4708 5.1 13.4125C4.26667 15.3542 3.85 17.3833 3.85 19.5C3.85 22.8833 4.85 25.95 6.85 28.7L4.875 34.525L10.925 32.6C13.5583 34.3333 16.4333 35.2 19.55 35.2ZM19.55 0.650002C22.1 0.650002 24.5375 1.15 26.8625 2.15C29.1875 3.15 31.1917 4.49167 32.875 6.175C34.5583 7.85834 35.9 9.8625 36.9 12.1875C37.9 14.5125 38.4 16.95 38.4 19.5C38.4 22.05 37.9 24.4875 36.9 26.8125C35.9 29.1375 34.5583 31.1417 32.875 32.825C31.1917 34.5083 29.1875 35.85 26.8625 36.85C24.5375 37.85 22.1 38.35 19.55 38.35C16.3 38.35 13.2583 37.5667 10.425 36L0 39.35L3.4 29.225C1.6 26.2583 0.7 23.0167 0.7 19.5C0.7 16.95 1.2 14.5125 2.2 12.1875C3.2 9.8625 4.54167 7.85834 6.225 6.175C7.90833 4.49167 9.9125 3.15 12.2375 2.15C14.5625 1.15 17 0.650002 19.55 0.650002Z" fill="black"/>
</svg>
